solid OpenSCAD_Model
  facet normal -1 0 0
    outer loop
      vertex 0 0 0
      vertex 0 36 8
      vertex 0 36 0
    endloop
  endfacet
  facet normal -1 -0 0
    outer loop
      vertex 0 36 8
      vertex 0 0 0
      vertex 0 0 8
    endloop
  endfacet
  facet normal -0 0 1
    outer loop
      vertex 0 36 8
      vertex 96 0 8
      vertex 96 36 8
    endloop
  endfacet
  facet normal 0 0 1
    outer loop
      vertex 96 0 8
      vertex 0 36 8
      vertex 0 0 8
    endloop
  endfacet
  facet normal 1 -0 0
    outer loop
      vertex 96 0 8
      vertex 96 36 0
      vertex 96 36 8
    endloop
  endfacet
  facet normal 1 0 0
    outer loop
      vertex 96 36 0
      vertex 96 0 8
      vertex 96 0 0
    endloop
  endfacet
  facet normal 0 1 0
    outer loop
      vertex 96 36 8
      vertex 59.25 36 3.5
      vertex 0 36 8
    endloop
  endfacet
  facet normal 0 1 -0
    outer loop
      vertex 96 36 0
      vertex 59.25 36 3.5
      vertex 96 36 8
    endloop
  endfacet
  facet normal 0 1 0
    outer loop
      vertex 59.25 36 3.5
      vertex 96 36 0
      vertex 59.25 36 0
    endloop
  endfacet
  facet normal 0 1 -0
    outer loop
      vertex 36.75 36 3.5
      vertex 0 36 8
      vertex 59.25 36 3.5
    endloop
  endfacet
  facet normal 0 1 0
    outer loop
      vertex 0 36 0
      vertex 36.75 36 3.5
      vertex 36.75 36 0
    endloop
  endfacet
  facet normal 0 1 0
    outer loop
      vertex 36.75 36 3.5
      vertex 0 36 0
      vertex 0 36 8
    endloop
  endfacet
  facet normal 0 0 -1
    outer loop
      vertex 0 0 0
      vertex 36.75 36 0
      vertex 36.75 0 0
    endloop
  endfacet
  facet normal -0 0 -1
    outer loop
      vertex 36.75 36 0
      vertex 0 0 0
      vertex 0 36 0
    endloop
  endfacet
  facet normal 0 0 -1
    outer loop
      vertex 59.25 0 0
      vertex 96 36 0
      vertex 96 0 0
    endloop
  endfacet
  facet normal -0 0 -1
    outer loop
      vertex 96 36 0
      vertex 59.25 0 0
      vertex 59.25 36 0
    endloop
  endfacet
  facet normal 0 -1 0
    outer loop
      vertex 0 0 8
      vertex 36.75 0 3.5
      vertex 96 0 8
    endloop
  endfacet
  facet normal 0 -1 0
    outer loop
      vertex 0 0 0
      vertex 36.75 0 3.5
      vertex 0 0 8
    endloop
  endfacet
  facet normal 0 -1 -0
    outer loop
      vertex 36.75 0 3.5
      vertex 0 0 0
      vertex 36.75 0 0
    endloop
  endfacet
  facet normal 0 -1 0
    outer loop
      vertex 59.25 0 3.5
      vertex 96 0 8
      vertex 36.75 0 3.5
    endloop
  endfacet
  facet normal 0 -1 0
    outer loop
      vertex 96 0 0
      vertex 59.25 0 3.5
      vertex 59.25 0 0
    endloop
  endfacet
  facet normal 0 -1 0
    outer loop
      vertex 59.25 0 3.5
      vertex 96 0 0
      vertex 96 0 8
    endloop
  endfacet
  facet normal 1 -0 0
    outer loop
      vertex 36.75 0 3.5
      vertex 36.75 36 0
      vertex 36.75 36 3.5
    endloop
  endfacet
  facet normal 1 0 0
    outer loop
      vertex 36.75 36 0
      vertex 36.75 0 3.5
      vertex 36.75 0 0
    endloop
  endfacet
  facet normal 0 0 -1
    outer loop
      vertex 36.75 0 3.5
      vertex 59.25 36 3.5
      vertex 59.25 0 3.5
    endloop
  endfacet
  facet normal -0 0 -1
    outer loop
      vertex 59.25 36 3.5
      vertex 36.75 0 3.5
      vertex 36.75 36 3.5
    endloop
  endfacet
  facet normal -1 0 0
    outer loop
      vertex 59.25 0 0
      vertex 59.25 36 3.5
      vertex 59.25 36 0
    endloop
  endfacet
  facet normal -1 -0 0
    outer loop
      vertex 59.25 36 3.5
      vertex 59.25 0 0
      vertex 59.25 0 3.5
    endloop
  endfacet
endsolid OpenSCAD_Model
