solid OpenSCAD_Model
  facet normal -1 0 0
    outer loop
      vertex -48 16.1972 -4
      vertex -48 18 4
      vertex -48 18 -2.79815
    endloop
  endfacet
  facet normal -1 0 0
    outer loop
      vertex -48 -14.4645 4
      vertex -48 16.1972 -4
      vertex -48 -14.4645 -4
    endloop
  endfacet
  facet normal -1 0 0
    outer loop
      vertex -48 16.1972 -4
      vertex -48 -14.4645 4
      vertex -48 18 4
    endloop
  endfacet
  facet normal 0 0 1
    outer loop
      vertex 48 18 4
      vertex 44.4645 -18 4
      vertex 48 -14.4645 4
    endloop
  endfacet
  facet normal 0 0 1
    outer loop
      vertex 48 18 4
      vertex -44.4645 -18 4
      vertex 44.4645 -18 4
    endloop
  endfacet
  facet normal -0 0 1
    outer loop
      vertex -48 18 4
      vertex -44.4645 -18 4
      vertex 48 18 4
    endloop
  endfacet
  facet normal 0 0 1
    outer loop
      vertex -44.4645 -18 4
      vertex -48 18 4
      vertex -48 -14.4645 4
    endloop
  endfacet
  facet normal 1 0 0
    outer loop
      vertex 48 18 4
      vertex 48 16.1972 -4
      vertex 48 18 -2.79815
    endloop
  endfacet
  facet normal 1 -0 0
    outer loop
      vertex 48 -14.4645 4
      vertex 48 16.1972 -4
      vertex 48 18 4
    endloop
  endfacet
  facet normal 1 0 0
    outer loop
      vertex 48 16.1972 -4
      vertex 48 -14.4645 4
      vertex 48 -14.4645 -4
    endloop
  endfacet
  facet normal 0 1 0
    outer loop
      vertex 48 18 4
      vertex 11.25 18 -0.45
      vertex -48 18 4
    endloop
  endfacet
  facet normal 0 1 -0
    outer loop
      vertex 48 18 -2.79815
      vertex 11.25 18 -0.45
      vertex 48 18 4
    endloop
  endfacet
  facet normal 0 1 0
    outer loop
      vertex 11.25 18 -0.45
      vertex 48 18 -2.79815
      vertex 11.25 18 -2.79815
    endloop
  endfacet
  facet normal 0 1 -0
    outer loop
      vertex -11.25 18 -0.45
      vertex -48 18 4
      vertex 11.25 18 -0.45
    endloop
  endfacet
  facet normal 0 1 0
    outer loop
      vertex -48 18 -2.79815
      vertex -11.25 18 -0.45
      vertex -11.25 18 -2.79815
    endloop
  endfacet
  facet normal 0 1 0
    outer loop
      vertex -11.25 18 -0.45
      vertex -48 18 -2.79815
      vertex -48 18 4
    endloop
  endfacet
  facet normal 0 0 -1
    outer loop
      vertex -44.4645 -18 -4
      vertex -11.25 16.1972 -4
      vertex -11.25 -18 -4
    endloop
  endfacet
  facet normal 0 0 -1
    outer loop
      vertex -48 -14.4645 -4
      vertex -11.25 16.1972 -4
      vertex -44.4645 -18 -4
    endloop
  endfacet
  facet normal -0 0 -1
    outer loop
      vertex -11.25 16.1972 -4
      vertex -48 -14.4645 -4
      vertex -48 16.1972 -4
    endloop
  endfacet
  facet normal 0 0 -1
    outer loop
      vertex 11.25 16.1972 -4
      vertex 48 -14.4645 -4
      vertex 44.4645 -18 -4
    endloop
  endfacet
  facet normal 0 0 -1
    outer loop
      vertex 11.25 16.1972 -4
      vertex 44.4645 -18 -4
      vertex 11.25 -18 -4
    endloop
  endfacet
  facet normal 0 0 -1
    outer loop
      vertex 48 -14.4645 -4
      vertex 11.25 16.1972 -4
      vertex 48 16.1972 -4
    endloop
  endfacet
  facet normal 0 -1 0
    outer loop
      vertex -44.4645 -18 4
      vertex -11.25 -18 -0.45
      vertex 44.4645 -18 4
    endloop
  endfacet
  facet normal 0 -1 0
    outer loop
      vertex -44.4645 -18 -4
      vertex -11.25 -18 -0.45
      vertex -44.4645 -18 4
    endloop
  endfacet
  facet normal 0 -1 -0
    outer loop
      vertex -11.25 -18 -0.45
      vertex -44.4645 -18 -4
      vertex -11.25 -18 -4
    endloop
  endfacet
  facet normal 0 -1 0
    outer loop
      vertex 11.25 -18 -0.45
      vertex 44.4645 -18 4
      vertex -11.25 -18 -0.45
    endloop
  endfacet
  facet normal 0 -1 0
    outer loop
      vertex 44.4645 -18 -4
      vertex 11.25 -18 -0.45
      vertex 11.25 -18 -4
    endloop
  endfacet
  facet normal 0 -1 0
    outer loop
      vertex 11.25 -18 -0.45
      vertex 44.4645 -18 -4
      vertex 44.4645 -18 4
    endloop
  endfacet
  facet normal 1 0 0
    outer loop
      vertex -11.25 18 -0.45
      vertex -11.25 16.1972 -4
      vertex -11.25 18 -2.79815
    endloop
  endfacet
  facet normal 1 -0 0
    outer loop
      vertex -11.25 -18 -0.45
      vertex -11.25 16.1972 -4
      vertex -11.25 18 -0.45
    endloop
  endfacet
  facet normal 1 0 0
    outer loop
      vertex -11.25 16.1972 -4
      vertex -11.25 -18 -0.45
      vertex -11.25 -18 -4
    endloop
  endfacet
  facet normal 0 0 -1
    outer loop
      vertex -11.25 -18 -0.45
      vertex 11.25 18 -0.45
      vertex 11.25 -18 -0.45
    endloop
  endfacet
  facet normal -0 0 -1
    outer loop
      vertex 11.25 18 -0.45
      vertex -11.25 -18 -0.45
      vertex -11.25 18 -0.45
    endloop
  endfacet
  facet normal -1 0 0
    outer loop
      vertex 11.25 16.1972 -4
      vertex 11.25 18 -0.45
      vertex 11.25 18 -2.79815
    endloop
  endfacet
  facet normal -1 0 0
    outer loop
      vertex 11.25 -18 -0.45
      vertex 11.25 16.1972 -4
      vertex 11.25 -18 -4
    endloop
  endfacet
  facet normal -1 0 0
    outer loop
      vertex 11.25 16.1972 -4
      vertex 11.25 -18 -0.45
      vertex 11.25 18 -0.45
    endloop
  endfacet
  facet normal 0.707107 -0.707107 0
    outer loop
      vertex 44.4645 -18 4
      vertex 48 -14.4645 -4
      vertex 48 -14.4645 4
    endloop
  endfacet
  facet normal 0.707107 -0.707107 0
    outer loop
      vertex 48 -14.4645 -4
      vertex 44.4645 -18 4
      vertex 44.4645 -18 -4
    endloop
  endfacet
  facet normal -0.707107 -0.707107 0
    outer loop
      vertex -44.4645 -18 -4
      vertex -48 -14.4645 4
      vertex -48 -14.4645 -4
    endloop
  endfacet
  facet normal -0.707107 -0.707107 0
    outer loop
      vertex -48 -14.4645 4
      vertex -44.4645 -18 -4
      vertex -44.4645 -18 4
    endloop
  endfacet
  facet normal 0 0.5547 -0.83205
    outer loop
      vertex -48 16.1972 -4
      vertex -11.25 18 -2.79815
      vertex -11.25 16.1972 -4
    endloop
  endfacet
  facet normal 0 0.5547 -0.83205
    outer loop
      vertex -11.25 18 -2.79815
      vertex -48 16.1972 -4
      vertex -48 18 -2.79815
    endloop
  endfacet
  facet normal 0 0.5547 -0.83205
    outer loop
      vertex 11.25 16.1972 -4
      vertex 48 18 -2.79815
      vertex 48 16.1972 -4
    endloop
  endfacet
  facet normal 0 0.5547 -0.83205
    outer loop
      vertex 48 18 -2.79815
      vertex 11.25 16.1972 -4
      vertex 11.25 18 -2.79815
    endloop
  endfacet
endsolid OpenSCAD_Model
