solid OpenSCAD_Model
  facet normal -0.857493 0.514496 0
    outer loop
      vertex 0 28.5 0
      vertex 4.5 36 10
      vertex 4.5 36 0
    endloop
  endfacet
  facet normal -0.857493 0.514496 0
    outer loop
      vertex 4.5 36 10
      vertex 0 28.5 0
      vertex 0 28.5 10
    endloop
  endfacet
  facet normal 0.857493 0.514496 0
    outer loop
      vertex 96 28.5 10
      vertex 91.5 36 0
      vertex 91.5 36 10
    endloop
  endfacet
  facet normal 0.857493 0.514496 0
    outer loop
      vertex 91.5 36 0
      vertex 96 28.5 10
      vertex 96 28.5 0
    endloop
  endfacet
  facet normal -1 0 0
    outer loop
      vertex 0 0 0
      vertex 0 28.5 10
      vertex 0 28.5 0
    endloop
  endfacet
  facet normal -1 -0 0
    outer loop
      vertex 0 28.5 10
      vertex 0 0 0
      vertex 0 0 10
    endloop
  endfacet
  facet normal 0 0 1
    outer loop
      vertex 91.5 36 10
      vertex 96 0 10
      vertex 96 28.5 10
    endloop
  endfacet
  facet normal -0 0 1
    outer loop
      vertex 4.5 36 10
      vertex 96 0 10
      vertex 91.5 36 10
    endloop
  endfacet
  facet normal 0 0 1
    outer loop
      vertex 0 0 10
      vertex 4.5 36 10
      vertex 0 28.5 10
    endloop
  endfacet
  facet normal 0 0 1
    outer loop
      vertex 4.5 36 10
      vertex 0 0 10
      vertex 96 0 10
    endloop
  endfacet
  facet normal 1 -0 0
    outer loop
      vertex 96 0 10
      vertex 96 28.5 0
      vertex 96 28.5 10
    endloop
  endfacet
  facet normal 1 0 0
    outer loop
      vertex 96 28.5 0
      vertex 96 0 10
      vertex 96 0 0
    endloop
  endfacet
  facet normal 0 1 -0
    outer loop
      vertex 91.5 36 0
      vertex 4.5 36 10
      vertex 91.5 36 10
    endloop
  endfacet
  facet normal 0 1 0
    outer loop
      vertex 4.5 36 10
      vertex 91.5 36 0
      vertex 4.5 36 0
    endloop
  endfacet
  facet normal 0 0 -1
    outer loop
      vertex 96 0 0
      vertex 91.5 36 0
      vertex 96 28.5 0
    endloop
  endfacet
  facet normal 0 0 -1
    outer loop
      vertex 96 0 0
      vertex 4.5 36 0
      vertex 91.5 36 0
    endloop
  endfacet
  facet normal 0 0 -1
    outer loop
      vertex 0 0 0
      vertex 4.5 36 0
      vertex 96 0 0
    endloop
  endfacet
  facet normal 0 0 -1
    outer loop
      vertex 4.5 36 0
      vertex 0 0 0
      vertex 0 28.5 0
    endloop
  endfacet
  facet normal 0 -1 0
    outer loop
      vertex 0 0 0
      vertex 96 0 10
      vertex 0 0 10
    endloop
  endfacet
  facet normal 0 -1 -0
    outer loop
      vertex 96 0 10
      vertex 0 0 0
      vertex 96 0 0
    endloop
  endfacet
endsolid OpenSCAD_Model
